<?xml version="1.0" standalone="no"?>
<!DOCTYPE svg PUBLIC "-//W3C//DTD SVG 20010904//EN"
 "http://www.w3.org/TR/2001/REC-SVG-20010904/DTD/svg10.dtd">
<svg version="1.0" xmlns="http://www.w3.org/2000/svg"
 width="500.000000pt" height="500.000000pt" viewBox="0 0 500.000000 500.000000"
 preserveAspectRatio="xMidYMid meet">
<metadata>
Created by potrace 1.11, written by Peter Selinger 2001-2013
</metadata>
<g transform="translate(0.000000,500.000000) scale(0.100000,-0.100000)"
fill="#000000" stroke="none">
<path d="M2019 4437 c-9 -7 -16 -26 -15 -45 1 -19 -2 -36 -6 -38 -4 -2 -4 -17
-1 -32 3 -15 6 -42 6 -59 0 -18 3 -33 7 -33 4 0 7 -6 7 -12 0 -7 3 -29 6 -49
5 -27 3 -36 -8 -36 -8 0 -14 3 -13 6 1 17 -15 50 -23 45 -5 -3 -9 2 -9 10 0 9
-5 16 -11 16 -5 0 -7 5 -4 10 3 6 -1 10 -10 10 -9 0 -14 4 -11 9 4 5 0 8 -6 6
-38 -9 -58 -18 -58 -27 0 -5 -4 -6 -10 -3 -9 6 -14 -8 -11 -27 0 -5 -3 -8 -7
-8 -4 0 -8 -9 -8 -20 0 -11 4 -20 7 -20 4 0 24 -15 44 -34 24 -23 32 -37 24
-42 -6 -4 -16 0 -21 9 -5 9 -15 14 -23 11 -8 -4 -15 -1 -15 5 0 6 -3 10 -7 9
-5 -1 -18 3 -30 10 -13 7 -23 10 -23 6 0 -3 -6 -2 -13 4 -7 6 -40 12 -72 13
-81 2 -85 1 -85 -16 0 -8 -4 -15 -10 -15 -5 0 -10 -5 -10 -11 0 -5 5 -7 12 -3
7 5 9 2 6 -7 -6 -14 14 -51 26 -50 21 3 26 0 20 -11 -5 -8 -2 -9 9 -5 9 3 19
2 22 -4 4 -5 11 -7 16 -4 5 4 12 -1 15 -9 3 -9 14 -16 24 -16 11 0 22 -5 25
-10 4 -6 11 -8 16 -5 5 4 9 2 9 -3 0 -6 16 -19 36 -31 19 -12 32 -15 28 -9 -4
7 8 -2 27 -21 19 -18 44 -40 57 -48 12 -9 22 -22 22 -30 0 -8 4 -12 8 -9 4 2
18 -11 31 -30 13 -19 27 -34 32 -34 5 0 9 -5 9 -10 0 -12 40 -71 55 -82 6 -4
7 -8 2 -8 -4 0 0 -11 9 -25 16 -24 16 -25 -7 -25 -19 0 -21 -2 -9 -10 12 -8 9
-10 -12 -10 -16 0 -28 -5 -28 -12 0 -6 -3 -9 -6 -5 -11 11 -34 -21 -34 -47 0
-19 -7 -27 -25 -32 -14 -3 -22 -10 -19 -15 3 -5 -4 -9 -15 -9 -12 0 -21 -5
-21 -12 0 -6 -3 -9 -6 -5 -3 3 -19 -8 -36 -24 -17 -16 -35 -26 -41 -22 -5 3
-7 2 -4 -4 6 -10 -26 -43 -43 -43 -6 0 -10 -3 -10 -8 0 -4 -18 -27 -40 -52
-57 -64 -61 -70 -55 -70 3 0 -3 -10 -15 -22 -11 -12 -20 -28 -20 -35 0 -7 -4
-13 -10 -13 -5 0 -10 -7 -10 -15 0 -8 -4 -15 -10 -15 -5 0 -7 -7 -4 -15 4 -8
2 -15 -3 -15 -6 0 -18 -26 -29 -57 -10 -32 -21 -60 -24 -63 -7 -7 -12 -31 -12
-57 0 -13 -4 -23 -8 -23 -4 0 -8 -10 -8 -22 0 -13 -3 -45 -7 -73 -8 -59 -9
-214 0 -268 4 -29 2 -37 -7 -31 -10 6 -11 5 -1 -7 7 -9 14 -37 14 -62 1 -26 5
-47 8 -47 4 0 7 -23 6 -51 0 -28 5 -53 11 -56 6 -2 10 -21 10 -43 -1 -21 2
-36 6 -34 5 3 9 -6 9 -20 2 -38 3 -44 11 -52 5 -4 8 -20 8 -35 0 -15 5 -31 10
-34 6 -3 8 -17 6 -30 -3 -13 0 -25 4 -27 5 -2 10 -18 12 -35 1 -18 6 -33 10
-33 4 0 8 -11 8 -24 0 -14 5 -28 10 -31 6 -4 8 -10 5 -15 -3 -5 0 -20 7 -32 7
-13 13 -31 14 -40 1 -10 2 -19 4 -20 1 -2 4 -16 6 -33 3 -16 9 -31 13 -33 5
-1 6 -14 3 -27 -2 -15 0 -25 7 -25 6 0 11 -13 11 -30 0 -16 4 -30 8 -30 4 0 9
-12 10 -27 1 -15 6 -29 10 -32 5 -3 8 -17 8 -31 0 -14 6 -24 12 -22 9 1 9 -3
0 -18 -7 -11 -18 -20 -24 -20 -6 0 -21 -11 -34 -25 -12 -13 -27 -22 -32 -19
-5 3 -8 2 -7 -3 4 -21 -2 -33 -16 -33 -8 0 -15 -6 -15 -13 0 -7 -9 -19 -20
-27 -10 -8 -22 -27 -25 -42 -4 -16 -11 -26 -16 -22 -5 3 -9 -6 -9 -20 0 -14
-5 -26 -11 -26 -5 0 -8 -4 -4 -9 3 -6 -3 -10 -12 -10 -10 0 -29 -2 -43 -4 -14
-3 -38 -5 -55 -6 -24 -1 -27 -3 -15 -12 12 -8 9 -10 -12 -6 -15 2 -25 0 -22
-4 3 -5 -2 -9 -11 -9 -23 0 -121 -99 -139 -140 -8 -19 -16 -30 -16 -25 -1 6
-7 -12 -15 -40 -7 -27 -11 -57 -10 -67 2 -10 -1 -18 -6 -18 -6 0 -7 -6 -3 -12
11 -17 12 -48 2 -42 -4 3 -8 0 -8 -5 0 -6 3 -11 8 -11 4 0 7 -16 6 -35 -1 -19
2 -38 7 -41 5 -3 9 -14 9 -25 0 -11 5 -17 10 -14 5 3 10 0 10 -7 0 -15 38 -59
86 -98 29 -25 30 -27 35 -125 0 -5 -1 -50 -2 -100 -2 -80 -7 -111 -26 -165 -3
-8 -7 -28 -9 -43 -2 -16 -8 -36 -14 -46 -5 -10 -6 -21 -3 -25 3 -3 -1 -6 -9
-6 -10 0 -15 -7 -14 -17 2 -10 -4 -24 -13 -30 -13 -10 216 -12 1089 -13 l1106
0 -1 110 c0 61 2 104 4 98 2 -7 10 -21 19 -30 8 -10 12 -18 8 -18 -3 0 3 -18
14 -40 11 -22 17 -40 14 -40 -4 0 1 -9 11 -20 10 -11 15 -20 12 -20 -4 0 1 -9
10 -20 16 -19 29 -20 213 -19 107 0 189 3 183 6 -7 2 -13 13 -13 24 0 10 -3
19 -7 19 -8 0 -38 47 -41 63 -1 4 -8 15 -17 23 -8 9 -13 20 -10 25 4 5 1 9 -5
9 -6 0 -8 5 -5 10 3 6 2 10 -3 10 -6 0 -18 27 -28 60 -10 33 -23 60 -30 60 -8
0 -11 9 -9 22 3 12 -4 37 -15 56 -11 18 -16 30 -10 27 5 -3 10 -1 10 4 0 6 -5
11 -11 11 -6 0 -9 7 -6 15 4 8 2 17 -3 20 -6 4 -10 24 -10 46 0 30 -3 38 -12
33 -9 -5 -9 -2 1 9 9 11 10 17 2 17 -22 0 -10 23 37 70 63 65 74 79 68 89 -3
5 0 14 8 20 12 10 21 39 32 96 1 6 3 12 4 15 7 15 5 88 -3 83 -4 -3 -7 1 -6 8
4 24 -13 109 -21 104 -4 -2 -13 14 -20 36 -8 22 -23 47 -34 55 -11 8 -17 14
-13 14 3 0 -10 15 -29 33 -20 17 -46 42 -60 55 -13 13 -24 19 -24 15 0 -4 -4
-3 -8 2 -6 9 -32 23 -102 54 -14 6 -37 12 -52 13 -16 1 -28 5 -28 8 0 3 -9 6
-20 6 -11 0 -20 -3 -20 -6 0 -4 -13 -5 -30 -2 -23 3 -30 9 -30 27 0 13 -5 25
-12 27 -7 3 -12 33 -14 79 -1 40 -3 74 -4 74 -1 0 -4 20 -6 45 -2 25 -7 52
-11 60 -3 8 -8 33 -10 55 -2 21 -7 42 -12 45 -5 3 -7 17 -5 32 1 15 -2 30 -7
33 -5 4 -10 25 -10 48 -1 25 -4 34 -7 22 -5 -18 -24 60 -36 146 -2 14 -9 36
-16 50 -7 13 -13 25 -12 27 6 8 1 42 -5 39 -5 -3 -8 9 -7 26 1 18 -4 35 -10
39 -7 5 -6 8 4 8 12 0 13 2 1 9 -12 8 -18 35 -24 116 -1 17 -6 33 -10 36 -12
9 -18 72 -24 247 -3 91 -1 168 4 175 5 6 9 24 8 39 0 15 2 25 6 22 4 -2 13 11
20 30 7 19 15 34 18 33 3 -1 7 2 8 7 3 17 88 65 127 72 23 3 46 11 53 16 7 5
27 9 45 8 92 -5 167 1 181 15 8 8 18 11 21 7 4 -3 6 26 4 66 -1 40 -5 72 -10
72 -4 0 -6 16 -4 35 1 20 -3 40 -10 46 -6 5 -10 19 -7 29 3 11 -3 37 -13 57
-10 21 -18 45 -19 54 0 9 -6 23 -14 32 -7 10 -11 17 -7 17 13 0 -23 55 -61 95
-43 46 -107 88 -116 78 -4 -3 -7 -2 -7 4 0 10 -46 28 -62 25 -5 -1 -8 2 -8 7
0 11 -50 23 -132 32 -16 2 -28 6 -28 9 0 4 -15 6 -32 5 -18 -1 -41 3 -52 8
-14 7 -16 6 -11 -4 6 -8 4 -10 -6 -3 -20 12 -38 14 -45 3 -3 -5 -11 -6 -17 -2
-21 13 -47 13 -47 0 0 -8 -3 -8 -8 -1 -4 5 -18 10 -32 10 -14 0 -28 -5 -32
-10 -5 -8 -8 -8 -8 0 0 12 -29 15 -45 5 -5 -3 -47 -6 -92 -6 -47 0 -79 -4 -75
-9 3 -5 -2 -7 -11 -3 -10 3 -17 3 -17 -1 0 -4 -12 -8 -27 -8 -55 -2 -110 -11
-124 -20 -8 -5 -20 -9 -26 -10 -7 -1 -32 -5 -55 -9 -28 -4 -38 -3 -29 3 11 8
11 10 0 15 -10 4 -11 8 -3 14 11 7 20 58 26 136 1 15 4 27 8 27 3 0 6 10 7 22
1 11 6 24 11 27 5 3 8 16 7 28 -1 12 2 20 7 17 4 -3 8 5 8 18 0 13 6 30 13 37
6 6 12 15 13 19 3 21 31 71 37 65 7 -6 10 11 5 22 -2 2 8 12 22 22 14 9 29 23
33 30 5 7 12 11 18 8 5 -4 9 -1 9 4 0 6 9 11 21 11 11 0 17 5 14 10 -3 6 3 10
14 10 22 0 25 11 21 80 -1 19 -6 37 -11 38 -5 2 -9 10 -9 18 0 9 -4 13 -9 9
-6 -3 -13 0 -18 8 -8 13 -44 18 -53 7 -3 -3 -21 -14 -40 -23 -19 -9 -46 -31
-60 -48 -14 -17 -33 -39 -42 -49 -9 -10 -14 -21 -10 -24 3 -3 0 -6 -6 -6 -7 0
-11 -3 -10 -7 1 -5 -3 -18 -10 -29 -6 -12 -9 -24 -7 -28 3 -3 2 -4 -2 -1 -9 7
-34 -45 -27 -56 3 -5 -2 -9 -10 -9 -8 0 -16 -8 -19 -17 -2 -10 -4 -1 -3 19 0
21 3 38 6 38 3 0 5 19 4 43 -1 23 2 44 5 47 12 10 32 52 21 45 -6 -3 -1 10 10
30 24 42 25 73 5 99 -8 11 -15 16 -15 12 0 -4 -10 0 -21 8 -25 17 -45 11 -76
-22 -21 -23 -27 -36 -24 -54 0 -5 -6 -8 -15 -8 -8 0 -13 -4 -10 -8 3 -5 -2
-31 -10 -58 -8 -27 -17 -71 -18 -97 -3 -48 -15 -77 -17 -41 -1 10 -1 22 0 27
0 4 -3 7 -7 7 -5 0 -8 19 -8 43 0 23 -5 41 -11 40 -11 -2 -11 26 1 45 4 6 3
12 -2 12 -5 0 -10 15 -10 33 0 73 -6 106 -15 100 -6 -4 -8 0 -5 9 5 11 -3 15
-36 16 -22 1 -48 -4 -57 -11z"/>
</g>
</svg>
